<svg id="лого" xmlns="http://www.w3.org/2000/svg" viewBox="0 0 213.661 54.511"><g fill="#86301C"><path d="M178.589 44.418V27.792h-3.454v20.341h2.53l10.953-17.103v17.103h3.397V27.792h-2.778zM200.234 44.418V27.792h-3.453v20.341h2.529l10.953-17.103v17.103h3.398V27.792h-2.779zM111.101 27.325c-6.194 0-11.215 4.766-11.215 10.645s5.021 10.645 11.215 10.645 11.214-4.766 11.214-10.645-5.021-10.645-11.214-10.645zm0 20.282c-4.025 0-7.287-3.254-7.287-9.637 0-6.472 3.263-9.637 7.287-9.637s7.287 3.431 7.287 9.637c0 6.151-3.263 9.637-7.287 9.637zM89.748 27.792h-6.654v20.341h3.417v-9.477c7.062 1.423 10.654-1.013 10.654-5.298.001-4.452-5.004-5.566-7.417-5.566zm-3.237 9.762v-8.258h2.527c1.528 0 4.453.94 4.453 4.512 0 4.8-4.817 4.479-6.98 3.746zM138.223 28.793c3.016 0 5.64 1.939 6.987 4.796l1.551-.98c-1.906-3.16-5.444-5.285-9.496-5.285-6.071 0-10.993 4.766-10.993 10.645s4.922 10.645 10.993 10.645c4.052 0 7.59-2.125 9.496-5.285l-1.551-.98c-1.347 2.857-3.971 4.796-6.987 4.796-4.39 0-7.95-4.109-7.95-9.177 0-5.066 3.56-9.175 7.95-9.175zM162.655 28.793c3.016 0 5.64 1.939 6.987 4.796l1.551-.98c-1.906-3.16-5.444-5.285-9.496-5.285-6.071 0-10.993 4.766-10.993 10.645s4.922 10.645 10.993 10.645c4.052 0 7.59-2.125 9.496-5.285l-1.551-.98c-1.347 2.857-3.971 4.796-6.987 4.796-4.39 0-7.95-4.109-7.95-9.177 0-5.066 3.559-9.175 7.95-9.175z"/></g><g fill="#52BED0"><path d="M96.394 21.832c-1.21.596-2.94.953-4.632.953-5.404 0-8.63-3.457-8.63-9.247 0-6.009 3.319-9.596 8.88-9.596 1.612 0 3.122.315 4.254.888l.308.156.689-1.864-.25-.127c-.566-.287-2.191-.954-5.032-.954-6.604 0-11.041 4.608-11.041 11.466 0 8.276 5.559 11.211 10.318 11.211 2.692 0 4.786-.576 5.849-1.113l.249-.127-.655-1.798-.307.152zM110.289 20.463v-5.972c0-4.133-1.908-6.319-5.519-6.319-1.606 0-3.323.507-4.594 1.354l-.217.145.725 1.713.315-.228c.967-.7 2.25-1.085 3.618-1.085h.053c1.064 0 1.895.291 2.467.866.69.692 1.025 1.771 1.025 3.298v.097c-3.635.005-6.246.777-7.76 2.296-.95.951-1.431 2.166-1.431 3.611 0 2.172 1.482 4.509 4.734 4.509a6.1 6.1 0 0 0 4.656-2.102l.176 1.753h2.027l-.058-.365c-.19-1.184-.217-2.416-.217-3.571zm-2.128-4.236v2.965c0 .173-.017.508-.14.82-.462 1.371-1.796 2.836-4.161 2.836-1.306 0-2.701-.753-2.701-2.863 0-.92.287-1.649.877-2.23 1.034-1.017 2.96-1.531 5.734-1.531l.391.003zM125.461 8.521h-9.468v4.413c0 2.554-.313 4.745-.955 6.692a14.405 14.405 0 0 1-1.412 2.873h-1.368l.187 1.901h14.336l.188-1.901h-1.508V8.521zm-2.126 1.9v12.077h-7.361c.402-.78.782-1.591 1.099-2.579.612-2.027.923-4.335.923-6.859v-2.639h5.339zM142.512 8.521h2.096v15.878h-2.096zM134.415 13.889c-.789 0-1.562.063-2.105.137V8.521h-2.159v15.867l.3.011c.302.011.644.033 1.017.058.719.047 1.535.101 2.446.101 1.767 0 4.213-.33 5.836-1.904.893-.904 1.346-2.059 1.346-3.43-.001-3.932-3.452-5.335-6.681-5.335zm4.552 5.366c0 2.556-2.481 3.466-4.802 3.466-.676 0-1.282-.038-1.886-.117v-6.705c.572-.091 1.264-.14 1.98-.14 1.416 0 4.708.341 4.708 3.496z"/></g><path fill="#C2F6FF" d="M67.343 22.496a.932.932 0 0 0-1.175-.599l-.162.053h-.001c-1.26.41-2.138-.586-3.579-2.382-1.398-1.744-3.139-3.914-5.947-3.93h-.05c-4.531 0-6.221 3.511-7.456 6.077-.402.836-.782 1.625-1.185 2.144-.317.408-.992.77-1.534.609a.923.923 0 0 1-.489-.343c-.343-.464-.211-1.237.085-1.674.369-.544 1.002-1.149 1.673-1.79 2.066-1.975 4.896-4.68 3.46-9.017-.883-2.666-3.485-3.65-5.576-4.441-2.153-.815-3.372-1.34-3.372-2.667v-.171a.933.933 0 1 0-1.866 0v.171c0 1.327-1.218 1.852-3.372 2.667-2.091.791-4.693 1.775-5.576 4.441-1.437 4.337 1.394 7.042 3.46 9.017.671.641 1.304 1.246 1.673 1.79.278.41.412 1.117.143 1.586a.97.97 0 0 1-.587.442c-.528.158-1.184-.221-1.494-.62-.403-.519-.783-1.308-1.186-2.144-1.235-2.566-2.925-6.077-7.456-6.077h-.05c-2.808.016-4.548 2.186-5.947 3.93-1.44 1.796-2.316 2.792-3.578 2.382h-.001l-.163-.053a.932.932 0 1 0-.576 1.774l.162.053c1.262.41 1.385 1.731 1.495 4.031.106 2.233.238 5.012 2.501 6.675 1.378 1.013 2.724 1.387 4 1.387 2.132 0 4.07-1.043 5.645-1.891.817-.439 1.588-.855 2.22-1.038.507-.148 1.286-.034 1.62.439a.98.98 0 0 1 .171.501c.022.59-.546 1.155-1.052 1.338-.618.223-1.486.341-2.406.465-2.832.383-6.712.908-8.099 5.261-.853 2.675.674 5.001 1.9 6.87 1.263 1.924 1.94 3.066 1.161 4.139l-.101.139a.933.933 0 0 0 1.508 1.097l.1-.138c.78-1.074 2.074-.783 4.295-.176 1.175.321 2.505.684 3.842.684 1.118 0 2.24-.254 3.279-1 3.712-2.664 3.012-6.516 2.501-9.329-.166-.913-.322-1.774-.301-2.431.016-.511.352-1.165.864-1.386.303-.131.621-.026.738.031.479.231.777.868.792 1.355.021.657-.136 1.519-.301 2.432-.511 2.812-1.21 6.664 2.501 9.328 1.039.746 2.161 1 3.279 1 1.337 0 2.668-.363 3.842-.684 2.221-.607 3.515-.898 4.295.176l.008.001.099.137a.932.932 0 1 0 1.508-1.096l-.1-.138v-.001c-.78-1.074-.103-2.215 1.16-4.14 1.227-1.869 2.753-4.195 1.9-6.87-1.387-4.353-5.266-4.878-8.099-5.261-.919-.124-1.787-.242-2.406-.465-.481-.174-1.033-.693-1.052-1.251-.01-.309.149-.569.226-.658.359-.414 1.084-.51 1.566-.369.631.183 1.403.598 2.22 1.038 1.574.847 3.513 1.891 5.645 1.891 1.276 0 2.622-.374 4-1.387 2.262-1.663 2.395-4.442 2.501-6.675.109-2.3.233-3.62 1.495-4.031l.163-.053a.932.932 0 0 0 .599-1.175z"/><g fill="#52BED0"><path d="M53.453 8.396a1.44 1.44 0 0 0 1.439-1.439 1.44 1.44 0 1 0-1.439 1.439zM64.739 19.064a.932.932 0 0 0-1.175-.599l-.162.053h-.001c-1.26.41-2.138-.586-3.579-2.382-1.398-1.744-3.139-3.914-5.947-3.93h-.05c-4.531 0-6.221 3.511-7.456 6.077-.402.836-.782 1.625-1.185 2.144-.317.408-.992.77-1.534.609a.923.923 0 0 1-.489-.343c-.343-.464-.211-1.237.085-1.674.369-.544 1.002-1.149 1.673-1.79 2.066-1.975 4.896-4.68 3.46-9.017-.883-2.666-3.485-3.65-5.576-4.441-2.153-.815-3.372-1.34-3.372-2.667V.933a.932.932 0 1 0-1.865 0v.171c0 1.327-1.218 1.852-3.372 2.667-2.091.791-4.693 1.775-5.576 4.441-1.437 4.337 1.394 7.042 3.46 9.017.671.641 1.304 1.246 1.673 1.79.278.41.412 1.117.143 1.586a.97.97 0 0 1-.587.442c-.528.158-1.184-.221-1.494-.62-.403-.519-.783-1.308-1.186-2.144-1.235-2.566-2.925-6.077-7.456-6.077h-.05c-2.808.016-4.548 2.186-5.947 3.93-1.44 1.796-2.316 2.792-3.578 2.382h-.001l-.162-.053a.932.932 0 1 0-.576 1.774l.162.053c1.262.41 1.385 1.731 1.495 4.031.106 2.233.238 5.012 2.501 6.675 1.378 1.013 2.724 1.387 4 1.387 2.132 0 4.07-1.043 5.645-1.891.817-.439 1.588-.855 2.22-1.038.507-.148 1.286-.034 1.62.439a.98.98 0 0 1 .171.501c.022.59-.546 1.155-1.052 1.338-.618.223-1.486.341-2.406.465-2.832.383-6.712.908-8.099 5.261-.853 2.675.674 5.001 1.9 6.87 1.263 1.924 1.94 3.066 1.161 4.139l-.101.139a.933.933 0 0 0 1.508 1.097l.1-.138c.78-1.074 2.074-.782 4.295-.176 1.175.321 2.505.684 3.842.684 1.118 0 2.24-.254 3.279-1 3.712-2.664 3.012-6.516 2.501-9.329-.166-.913-.322-1.774-.301-2.431.016-.511.352-1.165.864-1.386.303-.131.621-.026.738.031.479.231.777.868.792 1.355.021.657-.136 1.519-.301 2.432-.511 2.812-1.21 6.664 2.501 9.328 1.039.746 2.161 1 3.279 1 1.337 0 2.668-.363 3.842-.684 2.221-.607 3.515-.898 4.295.176l.001.001.099.137a.932.932 0 1 0 1.508-1.096l-.1-.138v-.001c-.78-1.074-.103-2.215 1.16-4.14 1.227-1.869 2.753-4.195 1.9-6.87-1.387-4.353-5.266-4.878-8.099-5.261-.919-.124-1.787-.242-2.406-.465-.481-.174-1.033-.693-1.052-1.251-.01-.309.149-.569.226-.658.359-.414 1.084-.51 1.566-.369.631.183 1.403.598 2.22 1.038 1.574.847 3.513 1.891 5.645 1.891 1.276 0 2.622-.374 4-1.387 2.262-1.663 2.395-4.442 2.501-6.675.109-2.3.233-3.62 1.495-4.031l.163-.053a.93.93 0 0 0 .604-1.175zm-4.119 5.171c-.101 2.121-.196 4.124-1.743 5.261-2.73 2.008-5.234.66-7.655-.643-.907-.488-1.763-.949-2.584-1.187-1.39-.402-3.163.074-3.871 1.5a3.074 3.074 0 0 0-.292.979c-.174 1.513.95 2.868 2.27 3.345.805.29 1.768.421 2.788.559 2.725.368 5.543.75 6.572 3.979.583 1.829-.518 3.505-1.683 5.28-.773 1.178-1.606 2.452-1.772 3.762-1.297-.247-2.766.151-4.125.522-2.048.56-3.983 1.087-5.542-.032-2.753-1.977-2.245-4.774-1.753-7.48.184-1.013.358-1.97.33-2.825-.047-1.462-1.068-3.019-2.671-3.227a3.428 3.428 0 0 0-.762-.002c-1.615.198-2.644 1.761-2.691 3.229-.027.855.146 1.812.33 2.825.492 2.706 1 5.503-1.753 7.48-1.559 1.119-3.494.592-5.542.032-1.359-.371-2.828-.77-4.125-.522-.166-1.31-.999-2.584-1.772-3.762-1.165-1.775-2.265-3.452-1.683-5.28 1.029-3.229 3.847-3.61 6.572-3.979 1.02-.138 1.983-.268 2.788-.559 1.378-.497 2.55-1.953 2.24-3.542a3.427 3.427 0 0 0-.218-.69c-.676-1.498-2.494-2.003-3.914-1.592-.822.238-1.678.699-2.585 1.187-2.421 1.303-4.925 2.651-7.655.643-1.546-1.137-1.641-3.14-1.742-5.261-.067-1.407-.142-2.927-.778-4.084 1.195-.562 2.149-1.749 3.03-2.848 1.328-1.656 2.583-3.221 4.502-3.232h.038c3.36 0 4.589 2.552 5.777 5.02.447.928.868 1.804 1.393 2.479.629.81 1.671 1.376 2.728 1.376.368 0 .732-.082 1.09-.225.46-.184.835-.532.939-.638 1.103-1.117 1.003-2.926.198-4.113-.481-.707-1.183-1.379-1.928-2.09-1.988-1.9-4.044-3.865-2.978-7.082.604-1.822 2.479-2.531 4.465-3.283 1.317-.498 2.74-1.039 3.644-2.002.904.962 2.327 1.504 3.644 2.002 1.986.752 3.861 1.461 4.465 3.283 1.065 3.217-.99 5.182-2.978 7.082-.744.711-1.447 1.383-1.927 2.091-.79 1.163-.901 2.924.134 4.046.121.131.519.477.883.65.392.185.8.28 1.21.28 1.056 0 2.099-.566 2.728-1.376.525-.675.947-1.552 1.393-2.479 1.188-2.468 2.417-5.021 5.777-5.021h.038c1.919.011 3.174 1.576 4.502 3.232.881 1.099 1.835 2.285 3.03 2.847-.634 1.157-.709 2.678-.776 4.085z"/><path d="M38.499 23.115a4.48 4.48 0 0 0-4.475 4.476c0 2.467 2.008 4.475 4.475 4.475s4.475-2.007 4.475-4.475a4.48 4.48 0 0 0-4.475-4.476zm0 7.085a2.613 2.613 0 0 1-2.61-2.609 2.613 2.613 0 0 1 2.61-2.61 2.613 2.613 0 0 1 2.61 2.61 2.612 2.612 0 0 1-2.61 2.609zM23.498 8.396a1.44 1.44 0 0 0 1.439-1.439 1.44 1.44 0 1 0-1.439 1.439zM14.274 36.932a1.44 1.44 0 0 0 1.439-1.439 1.44 1.44 0 0 0-1.439-1.439 1.44 1.44 0 0 0-1.439 1.439c0 .793.646 1.439 1.439 1.439zM62.746 36.929a1.44 1.44 0 0 0 1.439-1.439 1.44 1.44 0 1 0-1.439 1.439zM38.529 54.511a1.44 1.44 0 0 0 1.439-1.439 1.44 1.44 0 1 0-1.439 1.439z"/></g><path fill="#8B2810" d="M6.812 23.042c-2.17 0-4.375-.805-6.554-3.088a.932.932 0 1 1 1.35-1.288c4.035 4.227 7.926 2.332 12.432.138 4.511-2.195 9.623-4.684 14.598.528a.932.932 0 1 1-1.35 1.288c-4.035-4.227-7.926-2.332-12.432-.138-2.535 1.233-5.26 2.56-8.044 2.56zM6.812 33.027c-2.17 0-4.375-.805-6.554-3.088a.932.932 0 1 1 1.35-1.288c4.035 4.227 7.926 2.331 12.432.138 4.51-2.195 9.622-4.684 14.598.527a.932.932 0 1 1-1.35 1.288c-4.034-4.226-7.926-2.331-12.432-.138-2.535 1.235-5.26 2.561-8.044 2.561zM6.812 43.013c-2.17 0-4.375-.805-6.554-3.088a.932.932 0 1 1 1.35-1.288c4.035 4.227 7.926 2.332 12.432.138 4.511-2.195 9.623-4.684 14.598.528a.932.932 0 1 1-1.35 1.288c-4.035-4.227-7.926-2.332-12.432-.138-2.535 1.233-5.26 2.56-8.044 2.56z"/></svg>